<svg width="43" height="39" viewBox="0 0 43 39" fill="none" xmlns="http://www.w3.org/2000/svg">
<path d="M14.0048 7.53564C14.0048 7.53564 8.50562 7.57111 8.00021 7.62386C7.02861 7.72275 4.87068 8.14577 3.98238 9.72864C2.77247 11.8853 5.05031 14.9406 5.05031 14.9406L7.9141 19.0105" stroke="#BFECFF" stroke-width="1.5" stroke-linecap="round"/>
<path d="M10.8302 30.8107C11.5435 30.4144 11.7603 29.5791 11.3145 28.9451C10.8687 28.311 9.929 28.1183 9.21567 28.5145L8.35445 28.993C7.64112 29.3893 7.42428 30.2246 7.8701 30.8586C8.31593 31.4927 9.25561 31.6855 9.96894 31.2892L10.8302 30.8107Z" fill="white"/>
<path d="M17.216 20.1675C17.9293 19.7712 18.1462 18.9359 17.7004 18.3018C17.2545 17.6678 16.3149 17.475 15.6015 17.8713L7.27703 22.496C6.5637 22.8923 6.34685 23.7276 6.79268 24.3617C7.23851 24.9957 8.17819 25.1885 8.89151 24.7922L17.216 20.1675Z" fill="white"/>
<path d="M20.2046 25.6036C20.9179 25.2073 21.1347 24.3721 20.6889 23.738C20.2431 23.1039 19.3034 22.9112 18.5901 23.3075L13.8333 25.9501C13.12 26.3464 12.9032 27.1816 13.349 27.8157C13.7948 28.4498 14.7345 28.6425 15.4478 28.2462L20.2046 25.6036Z" fill="white"/>
<path d="M37.74 18.7022C38.2949 18.394 38.4635 17.7443 38.1168 17.2511C37.77 16.758 37.0391 16.608 36.4843 16.9163C35.9295 17.2245 35.7608 17.8742 36.1076 18.3673C36.4543 18.8605 37.1852 19.0104 37.74 18.7022Z" fill="white"/>
<path fill-rule="evenodd" clip-rule="evenodd" d="M30.8513 22.6472C30.0066 24.1668 29.0387 25.9116 28.1707 27.4766C26.9542 29.6695 25.9337 31.5092 25.7228 31.8804C24.9168 33.3043 24.1324 33.7846 23.1859 33.7016C22.4528 33.6428 21.4854 32.8234 21.4212 31.1918C21.357 29.5601 21.1365 25.0913 17.2738 27.2366C17.2075 27.1423 17.1751 26.9964 17.14 26.8386C17.0988 26.6528 17.0538 26.4504 16.9456 26.2964C16.0446 25.015 12.3375 19.689 12.6064 19.5396C12.8754 19.3901 14.1179 18.3655 13.3381 17.1882C12.6669 16.1747 11.5685 15.5952 10.3804 14.9684C10.1882 14.867 9.99374 14.7644 9.79834 14.6585C7.99495 13.6301 7.57686 12.8344 7.99871 11.7691C8.53383 10.7654 10.2977 10.7683 11.02 10.7892C11.7273 10.8101 17.1269 10.835 22.5361 10.8427L19.012 19.4349C18.8277 19.9391 18.8472 20.4847 19.0672 20.9776C19.4619 21.4083 20.0271 21.6882 20.6468 21.76L30.8491 22.6454C30.8499 22.646 30.8506 22.6466 30.8513 22.6472ZM26.62 10.8448C26.4636 10.8725 26.312 10.9219 26.171 10.9923C25.8663 11.1442 25.6294 11.3845 25.4999 11.6729C24.2594 14.1887 23.9127 14.9899 23.4194 16.1299C23.3082 16.3869 23.1896 16.661 23.0516 16.9759C23.0321 17.0264 23.008 17.0863 22.981 17.1533C22.7689 17.6801 22.3773 18.6524 22.6487 19.0384C22.8819 19.3701 23.4054 19.4175 24.4009 19.5076C24.5445 19.5205 24.6979 19.5344 24.8617 19.5502C27.5832 19.8092 31.4288 20.1051 31.4288 20.1051C31.7707 20.076 32.0954 19.9582 32.3626 19.7664C32.4254 19.7213 32.4843 19.6726 32.5392 19.6206C32.6394 19.4422 32.7274 19.2858 32.8015 19.1549L35.381 14.591C35.3896 14.5757 35.3986 14.5598 35.408 14.5434C35.9341 13.615 37.5462 10.7707 32.731 10.8221C31.3528 10.8368 29.1303 10.8435 26.62 10.8448Z" fill="white"/>
<path d="M39.7765 14.1406C39.7765 14.1406 41.55 11.671 40.1349 9.61551C38.7198 7.55998 34.6871 7.52905 34.6871 7.52905L19.6931 7.60056" stroke="#FE60B7" stroke-width="1.5" stroke-linecap="round"/>
<path d="M16.3136 31.163C16.3136 31.163 19.2721 35.3966 19.4183 35.5791C19.8237 36.0879 21.5305 37.9863 23.8168 37.792C26.5155 37.5622 28.225 34.2268 28.225 34.2268L35.3252 21.5908" stroke="#A072FD" stroke-width="1.5" stroke-linecap="round"/>
</svg>
